<?xml version="1.0" encoding="utf-8"?>
<!-- Generator: Adobe Illustrator 14.0.0, SVG Export Plug-In . SVG Version: 6.00 Build 43363)  -->
<!DOCTYPE svg PUBLIC "-//W3C//DTD SVG 1.1//EN" "http://www.w3.org/Graphics/SVG/1.1/DTD/svg11.dtd">
<svg version="1.1" id="SVG" xmlns="http://www.w3.org/2000/svg" xmlns:xlink="http://www.w3.org/1999/xlink" x="0px" y="0px"
	 width="1886.256px" height="361.48px" viewBox="0 0 1886.256 361.48" enable-background="new 0 0 1886.256 361.48"
	 xml:space="preserve">
<g>
	
		<rect x="564.478" y="102.548" fill="#3D414D" stroke="#2E2E2E" stroke-width="2" stroke-linecap="round" stroke-linejoin="round" width="85.834" height="13"/>
	
		<rect x="564.527" y="231.586" fill="#3D414D" stroke="#2E2E2E" stroke-width="2" stroke-linecap="round" stroke-linejoin="round" width="86.5" height="13"/>
	<g id="berma">
		<rect x="0.016" y="227.719" fill="#525866" width="1835.984" height="11"/>
	</g>
	
		<linearGradient id="PKBASE_1_" gradientUnits="userSpaceOnUse" x1="15885.8584" y1="-2512.6243" x2="15885.8584" y2="-2529.3418" gradientTransform="matrix(-1 0 0 -1 16803.8516 -2343.5151)">
		<stop  offset="0" style="stop-color:#6DA200"/>
		<stop  offset="1" style="stop-color:#4A7300"/>
	</linearGradient>
	<rect id="PKBASE" x="0" y="168.069" fill="url(#PKBASE_1_)" width="1835.985" height="18.667"/>
	<g id="berma_2_">
		<rect x="0.016" y="116.085" fill="#525866" width="1835.984" height="10.01"/>
	</g>
	<g id="POS_SAIDAPK1000_3_">
		<g>
			<path fill="#525866" d="M473.639,95.132v0.127c0,10.537,2.83,17.987,8.411,22.16c7.516,5.607,15.445,4.235,15.843,4.113v-5.201
				v2.603v-2.613c-0.064,0.019-7.331,0.701-12.64-3.289c-4.107-3.094-6.203-9.083-6.203-17.788v-0.128L473.639,95.132
				L473.639,95.132z"/>
		</g>
		<g>
			<g>
				<path fill="#FFFFFF" d="M474.082,93.566c1.396-1.396,3.659-1.396,5.062,0.003c1.396,1.396,1.396,3.664,0.014,5.062
					c-1.397,1.398-3.672,1.398-5.069-0.002C472.687,97.236,472.687,94.964,474.082,93.566"/>
				<path fill="#1D1E1B" d="M473.582,93.065c1.678-1.679,4.394-1.679,6.062,0c1.688,1.674,1.688,4.396,0.012,6.067
					c-1.684,1.676-4.396,1.677-6.063,0C471.897,97.458,471.897,94.738,473.582,93.065 M478.631,94.074
					c-1.114-1.115-2.924-1.115-4.045,0c-1.112,1.117-1.112,2.931-0.011,4.055c1.108,1.116,2.925,1.116,4.056,0
					C479.754,97.003,479.751,95.191,478.631,94.074z"/>
			</g>
			<g>
				<path d="M477.7,95.061c-0.219-0.114-0.575-0.229-0.923-0.229c-0.385,0-0.589,0.154-0.589,0.399c0,0.229,0.188,0.356,0.618,0.515
					c0.611,0.218,1.021,0.559,1.021,1.088c0,0.631-0.521,1.104-1.396,1.104c-0.419,0-0.724-0.081-0.943-0.185l0.188-0.664
					c0.146,0.07,0.41,0.179,0.77,0.179c0.354,0,0.533-0.17,0.533-0.354c0-0.237-0.201-0.339-0.688-0.521
					c-0.648-0.24-0.947-0.58-0.947-1.098c0-0.617,0.47-1.146,1.484-1.146c0.418,0,0.831,0.117,1.043,0.232L477.7,95.061z"/>
			</g>
		</g>
	</g>
	<g id="POS_ENTRADAPK1000_4_">
		<g>
			<path fill="#525866" d="M472.916,95.132v0.127c0,10.537-2.832,17.987-8.408,22.16c-7.506,5.607-15.439,4.235-15.84,4.113v-5.201
				v2.603v-2.613c0.063,0.019,7.332,0.701,12.633-3.289c4.111-3.094,6.203-9.083,6.203-17.788v-0.128L472.916,95.132L472.916,95.132
				z"/>
		</g>
		<g>
			<g>
				<path fill="#FFFFFF" d="M471.549,98.632c-1.396,1.393-3.666,1.393-5.062-0.002c-1.396-1.398-1.396-3.665-0.014-5.063
					c1.398-1.396,3.668-1.396,5.066,0.005C472.94,94.963,472.94,97.233,471.549,98.632"/>
				<path fill="#1D1E1B" d="M472.049,99.132c-1.683,1.682-4.396,1.682-6.062,0c-1.682-1.675-1.682-4.396-0.003-6.067
					c1.688-1.676,4.396-1.676,6.065,0C473.728,94.738,473.728,97.456,472.049,99.132 M467,98.123c1.111,1.115,2.926,1.115,4.043,0
					c1.114-1.117,1.114-2.931,0.006-4.054c-1.114-1.115-2.93-1.115-4.055,0C465.876,95.19,465.877,97.003,467,98.123z"/>
			</g>
			<g>
				<path d="M470.098,96.436h-1.354v0.873h1.513v0.685h-2.344v-3.688h2.271v0.688h-1.438v0.764h1.354L470.098,96.436L470.098,96.436
					L470.098,96.436z"/>
			</g>
		</g>
	</g>
	<g id="POS_SAIDAPK1000_2_">
		<g>
			<path fill="#525866" d="M769.89,95.602v0.127c0,10.537,2.832,17.986,8.414,22.16c7.516,5.607,15.445,4.235,15.84,4.113v-5.201
				v2.602v-2.612c-0.062,0.019-7.331,0.7-12.637-3.289c-4.111-3.095-6.203-9.083-6.203-17.789v-0.127L769.89,95.602L769.89,95.602z"
				/>
		</g>
		<g>
			<g>
				<path fill="#FFFFFF" d="M770.335,94.038c1.396-1.396,3.656-1.396,5.062,0.003c1.396,1.396,1.396,3.664,0.015,5.062
					c-1.396,1.398-3.672,1.398-5.065-0.002C768.94,97.708,768.94,95.433,770.335,94.038"/>
				<path fill="#1D1E1B" d="M769.835,93.536c1.678-1.68,4.391-1.68,6.062,0c1.688,1.674,1.688,4.396,0.013,6.067
					c-1.686,1.675-4.396,1.676-6.062,0C768.153,97.928,768.153,95.21,769.835,93.536 M774.886,94.546
					c-1.117-1.115-2.924-1.115-4.045,0c-1.115,1.117-1.115,2.931-0.01,4.055c1.105,1.115,2.924,1.115,4.055,0
					C776.008,97.473,776.005,95.663,774.886,94.546z"/>
			</g>
			<g>
				<path d="M773.955,95.532c-0.219-0.113-0.573-0.229-0.924-0.229c-0.387,0-0.588,0.154-0.588,0.399
					c0,0.229,0.188,0.356,0.615,0.514c0.613,0.219,1.021,0.559,1.021,1.089c0,0.631-0.521,1.104-1.396,1.104
					c-0.418,0-0.721-0.081-0.941-0.185l0.188-0.664c0.146,0.069,0.41,0.178,0.77,0.178c0.354,0,0.531-0.17,0.531-0.354
					c0-0.238-0.199-0.34-0.686-0.521c-0.65-0.239-0.947-0.579-0.947-1.097c0-0.618,0.467-1.146,1.484-1.146
					c0.417,0,0.832,0.116,1.042,0.232L773.955,95.532z"/>
			</g>
		</g>
	</g>
	<g id="POS_ENTRADAPK1000_2_">
		<g>
			<path fill="#525866" d="M174.249,97.215v0.127c0,10.537-2.832,17.987-8.407,22.16c-7.507,5.607-15.439,4.235-15.841,4.113v-5.201
				v2.603v-2.613c0.062,0.019,7.332,0.701,12.634-3.289c4.11-3.094,6.202-9.083,6.202-17.788v-0.128L174.249,97.215L174.249,97.215z
				"/>
		</g>
		<g>
			<g>
				<path fill="#FFFFFF" d="M172.886,100.715c-1.396,1.393-3.666,1.393-5.062-0.002c-1.397-1.398-1.397-3.665-0.017-5.063
					c1.396-1.396,3.668-1.396,5.064,0.005C174.276,97.045,174.276,99.316,172.886,100.715"/>
				<path fill="#1D1E1B" d="M173.386,101.215c-1.684,1.682-4.396,1.682-6.062,0c-1.683-1.675-1.683-4.396-0.002-6.067
					c1.688-1.676,4.396-1.676,6.065,0C175.067,96.821,175.067,99.539,173.386,101.215 M168.333,100.206
					c1.109,1.115,2.927,1.115,4.043,0c1.115-1.117,1.115-2.931,0.007-4.054c-1.116-1.115-2.931-1.115-4.056,0
					C167.209,97.273,167.211,99.086,168.333,100.206z"/>
			</g>
			<g>
				<path d="M171.431,98.519h-1.354v0.873h1.512v0.685h-2.344v-3.688h2.271v0.688h-1.438v0.764h1.354v0.679H171.431L171.431,98.519z
					"/>
			</g>
		</g>
	</g>
	<g id="NEG_SAIDAPK00_5_">
		<g>
			<path fill="#525866" d="M168.815,259.957v-0.135c0-10.855-2.931-18.537-8.672-22.838c-7.731-5.775-15.912-4.361-16.321-4.236
				v5.357v-2.686v2.688c0.067-0.02,7.562-0.721,13.021,3.393c4.237,3.188,6.396,9.354,6.396,18.33v0.131L168.815,259.957
				L168.815,259.957z"/>
		</g>
		<g>
			<g>
				<path fill="#FFFFFF" d="M162.904,256.362c1.438-1.438,3.771-1.438,5.218,0.004c1.438,1.438,1.438,3.771,0.011,5.217
					c-1.438,1.438-3.777,1.438-5.226-0.004C161.469,260.143,161.469,257.801,162.904,256.362"/>
				<path fill="#1D1E1B" d="M162.387,255.846c1.729-1.729,4.521-1.729,6.243,0c1.729,1.73,1.729,4.525,0.018,6.256
					c-1.729,1.727-4.521,1.727-6.255,0C160.657,260.369,160.657,257.573,162.387,255.846 M167.596,256.883
					c-1.146-1.146-3.016-1.146-4.171,0c-1.146,1.146-1.146,3.021-0.017,4.18c1.146,1.146,3.021,1.146,4.181,0
					C168.751,259.903,168.75,258.041,167.596,256.883z"/>
			</g>
			<g>
				<path d="M166.633,257.903c-0.226-0.117-0.593-0.238-0.947-0.238c-0.396,0-0.604,0.16-0.604,0.412
					c0,0.236,0.188,0.369,0.641,0.529c0.629,0.227,1.045,0.572,1.045,1.123c0,0.646-0.539,1.139-1.438,1.139
					c-0.438,0-0.742-0.082-0.979-0.188l0.188-0.688c0.146,0.07,0.422,0.188,0.789,0.188s0.551-0.18,0.551-0.365
					c0-0.246-0.207-0.354-0.7-0.537c-0.673-0.248-0.979-0.598-0.979-1.131c0-0.639,0.479-1.184,1.524-1.184
					c0.438,0,0.855,0.119,1.074,0.24L166.633,257.903z"/>
			</g>
		</g>
	</g>
	<g id="POS_ENTRADAPK1000_3_">
		<g>
			<path fill="#525866" d="M320.249,97.215v0.127c0,10.537-2.832,17.987-8.407,22.16c-7.507,5.607-15.439,4.235-15.841,4.113v-5.201
				v2.603v-2.613c0.062,0.019,7.332,0.701,12.634-3.289c4.11-3.094,6.203-9.083,6.203-17.788v-0.128L320.249,97.215L320.249,97.215z
				"/>
		</g>
		<g>
			<g>
				<path fill="#FFFFFF" d="M318.885,100.715c-1.396,1.393-3.665,1.393-5.062-0.002c-1.397-1.398-1.397-3.665-0.017-5.063
					c1.396-1.396,3.668-1.396,5.064,0.005C320.276,97.045,320.276,99.316,318.885,100.715"/>
				<path fill="#1D1E1B" d="M319.385,101.215c-1.683,1.682-4.396,1.682-6.062,0c-1.683-1.675-1.683-4.396-0.002-6.067
					c1.688-1.676,4.396-1.676,6.064,0C321.067,96.821,321.067,99.539,319.385,101.215 M314.333,100.206
					c1.109,1.115,2.927,1.115,4.043,0c1.115-1.117,1.115-2.931,0.007-4.054c-1.116-1.115-2.931-1.115-4.056,0
					C313.209,97.273,313.211,99.086,314.333,100.206z"/>
			</g>
			<g>
				<path d="M317.431,98.519h-1.354v0.873h1.513v0.685h-2.345v-3.688h2.271v0.688h-1.438v0.764h1.354v0.679H317.431L317.431,98.519z
					"/>
			</g>
		</g>
	</g>
	<g id="NEG_SAIDAPK00_1_">
		<g>
			<path fill="#525866" d="M314.815,259.957v-0.135c0-10.855-2.931-18.537-8.672-22.838c-7.731-5.775-15.912-4.361-16.321-4.236
				v5.357v-2.686v2.688c0.067-0.02,7.562-0.721,13.021,3.393c4.237,3.188,6.396,9.354,6.396,18.33v0.131L314.815,259.957
				L314.815,259.957z"/>
		</g>
		<g>
			<g>
				<path fill="#FFFFFF" d="M308.904,256.362c1.438-1.438,3.771-1.438,5.218,0.004c1.438,1.438,1.438,3.771,0.011,5.217
					c-1.438,1.438-3.777,1.438-5.226-0.004C307.469,260.143,307.469,257.801,308.904,256.362"/>
				<path fill="#1D1E1B" d="M308.387,255.846c1.729-1.729,4.521-1.729,6.243,0c1.729,1.73,1.729,4.525,0.018,6.256
					c-1.729,1.727-4.521,1.727-6.255,0C306.657,260.369,306.657,257.573,308.387,255.846 M313.596,256.883
					c-1.146-1.146-3.016-1.146-4.171,0c-1.146,1.146-1.146,3.021-0.017,4.18c1.146,1.146,3.021,1.146,4.181,0
					C314.751,259.903,314.75,258.041,313.596,256.883z"/>
			</g>
			<g>
				<path d="M312.633,257.903c-0.226-0.117-0.593-0.238-0.947-0.238c-0.396,0-0.604,0.16-0.604,0.412
					c0,0.236,0.188,0.369,0.641,0.529c0.629,0.227,1.045,0.572,1.045,1.123c0,0.646-0.539,1.139-1.438,1.139
					c-0.438,0-0.742-0.082-0.979-0.188l0.188-0.688c0.146,0.07,0.422,0.188,0.789,0.188s0.551-0.18,0.551-0.365
					c0-0.246-0.207-0.354-0.7-0.537c-0.673-0.248-0.979-0.598-0.979-1.131c0-0.639,0.479-1.184,1.524-1.184
					c0.438,0,0.855,0.119,1.074,0.24L312.633,257.903z"/>
			</g>
		</g>
	</g>
	<g id="POS_ENTRADAPK1000_5_">
		<g>
			<path fill="#525866" d="M695.25,97.215v0.127c0,10.537-2.832,17.987-8.408,22.16c-7.506,5.607-15.439,4.235-15.84,4.113v-5.201
				v2.603v-2.613c0.062,0.019,7.332,0.701,12.633-3.289c4.111-3.094,6.203-9.083,6.203-17.788v-0.128L695.25,97.215L695.25,97.215z"
				/>
		</g>
		<g>
			<g>
				<path fill="#FFFFFF" d="M693.885,100.715c-1.396,1.393-3.666,1.393-5.062-0.002c-1.397-1.398-1.397-3.665-0.018-5.063
					c1.398-1.396,3.668-1.396,5.066,0.005C695.276,97.045,695.276,99.316,693.885,100.715"/>
				<path fill="#1D1E1B" d="M694.385,101.215c-1.683,1.682-4.396,1.682-6.062,0c-1.684-1.675-1.684-4.396-0.002-6.067
					c1.688-1.676,4.396-1.676,6.064,0C696.067,96.821,696.067,99.539,694.385,101.215 M689.334,100.206
					c1.108,1.115,2.926,1.115,4.043,0c1.114-1.117,1.114-2.931,0.006-4.054c-1.117-1.115-2.93-1.115-4.055,0
					C688.21,97.273,688.212,99.086,689.334,100.206z"/>
			</g>
			<g>
				<path d="M692.43,98.519h-1.354v0.873h1.513v0.685h-2.345v-3.688h2.271v0.688h-1.436v0.764h1.354v0.679H692.43L692.43,98.519z"/>
			</g>
		</g>
	</g>
	<g id="NEG_SAIDAPK00_2_">
		<g>
			<path fill="#525866" d="M689.815,259.957v-0.135c0-10.855-2.931-18.537-8.673-22.838c-7.729-5.775-15.911-4.361-16.32-4.236
				v5.357v-2.686v2.688c0.066-0.02,7.562-0.721,13.021,3.393c4.238,3.188,6.396,9.354,6.396,18.33v0.131L689.815,259.957
				L689.815,259.957z"/>
		</g>
		<g>
			<g>
				<path fill="#FFFFFF" d="M683.904,256.362c1.438-1.438,3.771-1.438,5.219,0.004c1.438,1.438,1.438,3.771,0.01,5.217
					c-1.438,1.438-3.777,1.438-5.226-0.004C682.469,260.143,682.469,257.801,683.904,256.362"/>
				<path fill="#1D1E1B" d="M683.386,255.846c1.729-1.729,4.522-1.729,6.244,0c1.729,1.73,1.729,4.525,0.018,6.256
					c-1.729,1.727-4.521,1.727-6.256,0C681.657,260.369,681.657,257.573,683.386,255.846 M688.595,256.883
					c-1.146-1.146-3.014-1.146-4.17,0c-1.146,1.146-1.146,3.021-0.016,4.18c1.146,1.146,3.02,1.146,4.18,0
					C689.752,259.903,689.751,258.041,688.595,256.883z"/>
			</g>
			<g>
				<path d="M687.633,257.903c-0.226-0.117-0.592-0.238-0.948-0.238c-0.396,0-0.604,0.16-0.604,0.412
					c0,0.236,0.188,0.369,0.639,0.529c0.629,0.227,1.045,0.572,1.045,1.123c0,0.646-0.539,1.139-1.438,1.139
					c-0.438,0-0.741-0.082-0.979-0.188l0.188-0.688c0.146,0.07,0.423,0.188,0.789,0.188c0.367,0,0.552-0.18,0.552-0.365
					c0-0.246-0.207-0.354-0.701-0.537c-0.672-0.248-0.979-0.598-0.979-1.131c0-0.639,0.479-1.184,1.523-1.184
					c0.438,0,0.856,0.119,1.076,0.24L687.633,257.903z"/>
			</g>
		</g>
	</g>
	<g id="NEG_ENTRADAPK00_5_">
		<g>
			<path fill="#525866" d="M98.259,260.473v-0.135c0-10.855,2.934-18.539,8.676-22.838c7.735-5.773,15.916-4.359,16.328-4.236v5.357
				v-2.686v2.689c-0.068-0.021-7.562-0.723-13.021,3.391c-4.238,3.189-6.396,9.357-6.396,18.33v0.131H98.25L98.259,260.473
				L98.259,260.473z"/>
		</g>
		<g>
			<g>
				<path fill="#FFFFFF" d="M104.402,262.1c-1.439,1.438-3.779,1.438-5.219-0.006c-1.438-1.439-1.438-3.771-0.015-5.219
					c1.438-1.438,3.777-1.438,5.229,0.004C105.835,258.313,105.835,260.658,104.402,262.1"/>
				<path fill="#1D1E1B" d="M104.915,262.61c-1.729,1.729-4.526,1.729-6.248,0c-1.729-1.729-1.729-4.525-0.006-6.252
					c1.731-1.729,4.529-1.729,6.256,0C106.651,258.088,106.651,260.885,104.915,262.61 M99.706,261.574
					c1.148,1.146,3.021,1.146,4.168,0c1.148-1.152,1.148-3.021,0.004-4.18c-1.146-1.146-3.016-1.146-4.18,0
					C98.553,258.557,98.555,260.418,99.706,261.574z"/>
			</g>
			<g>
				<path d="M102.904,259.838h-1.396v0.898h1.562v0.703h-2.414v-3.799H103v0.707h-1.479v0.789h1.396L102.904,259.838
					L102.904,259.838z"/>
			</g>
		</g>
	</g>
	<g id="NEG_ENTRADAPK00_1_">
		<g>
			<path fill="#525866" d="M408.259,260.473v-0.135c0-10.855,2.934-18.539,8.676-22.838c7.736-5.773,15.915-4.359,16.327-4.236
				v5.357v-2.686v2.689c-0.067-0.021-7.562-0.723-13.021,3.391c-4.238,3.189-6.396,9.357-6.396,18.33v0.131h-5.596L408.259,260.473
				L408.259,260.473z"/>
		</g>
		<g>
			<g>
				<path fill="#FFFFFF" d="M414.402,262.1c-1.439,1.438-3.779,1.438-5.219-0.006c-1.438-1.439-1.438-3.771-0.015-5.219
					c1.438-1.438,3.777-1.438,5.229,0.004C415.835,258.313,415.835,260.658,414.402,262.1"/>
				<path fill="#1D1E1B" d="M414.915,262.61c-1.729,1.729-4.526,1.729-6.248,0c-1.729-1.729-1.729-4.525-0.006-6.252
					c1.731-1.729,4.529-1.729,6.256,0C416.651,258.088,416.651,260.885,414.915,262.61 M409.706,261.574
					c1.148,1.146,3.021,1.146,4.168,0c1.148-1.152,1.148-3.021,0.004-4.18c-1.146-1.146-3.016-1.146-4.18,0
					C408.553,258.557,408.555,260.418,409.706,261.574z"/>
			</g>
			<g>
				<path d="M412.904,259.838h-1.396v0.898h1.562v0.703h-2.414v-3.799H413v0.707h-1.479v0.789h1.396L412.904,259.838
					L412.904,259.838z"/>
			</g>
		</g>
	</g>
	<g id="NEG_ENTRADAPK00_2_">
		<g>
			<path fill="#525866" d="M768.925,260.473v-0.135c0-10.855,2.934-18.539,8.675-22.838c7.737-5.773,15.916-4.359,16.328-4.236
				v5.357v-2.686v2.689c-0.067-0.021-7.562-0.723-13.021,3.391c-4.238,3.189-6.396,9.357-6.396,18.33v0.131h-5.594L768.925,260.473
				L768.925,260.473z"/>
		</g>
		<g>
			<g>
				<path fill="#FFFFFF" d="M775.069,262.1c-1.438,1.438-3.778,1.438-5.22-0.006c-1.438-1.439-1.438-3.771-0.013-5.219
					c1.438-1.438,3.776-1.438,5.229,0.004C776.503,258.313,776.503,260.658,775.069,262.1"/>
				<path fill="#1D1E1B" d="M775.583,262.61c-1.729,1.729-4.528,1.729-6.249,0c-1.729-1.729-1.729-4.525-0.006-6.252
					c1.73-1.729,4.529-1.729,6.256,0C777.317,258.088,777.317,260.885,775.583,262.61 M770.374,261.574
					c1.147,1.146,3.019,1.146,4.167,0c1.148-1.152,1.148-3.021,0.004-4.18c-1.146-1.146-3.017-1.146-4.181,0
					C769.219,258.557,769.22,260.418,770.374,261.574z"/>
			</g>
			<g>
				<path d="M773.571,259.838h-1.396v0.898h1.562v0.703h-2.414v-3.799h2.345v0.707h-1.479v0.789h1.396L773.571,259.838
					L773.571,259.838z"/>
			</g>
		</g>
	</g>
	<g id="POS_SAIDAPK1000_1_">
		<g>
			<path fill="#525866" d="M1272.385,95.602v0.127c0,10.537,2.832,17.986,8.414,22.16c7.516,5.607,15.444,4.235,15.84,4.113v-5.201
				v2.602v-2.612c-0.062,0.019-7.332,0.7-12.637-3.289c-4.111-3.095-6.203-9.083-6.203-17.789v-0.127L1272.385,95.602
				L1272.385,95.602z"/>
		</g>
		<g>
			<g>
				<path fill="#FFFFFF" d="M1272.828,94.038c1.396-1.396,3.656-1.396,5.062,0.003c1.396,1.396,1.396,3.664,0.016,5.062
					c-1.396,1.398-3.672,1.398-5.065-0.002C1271.433,97.708,1271.433,95.433,1272.828,94.038"/>
				<path fill="#1D1E1B" d="M1272.328,93.536c1.679-1.68,4.392-1.68,6.062,0c1.688,1.674,1.688,4.396,0.014,6.067
					c-1.686,1.675-4.396,1.676-6.062,0C1270.646,97.928,1270.646,95.21,1272.328,93.536 M1277.381,94.546
					c-1.117-1.115-2.924-1.115-4.045,0c-1.115,1.117-1.115,2.931-0.011,4.055c1.105,1.115,2.925,1.115,4.056,0
					C1278.502,97.473,1278.498,95.663,1277.381,94.546z"/>
			</g>
			<g>
				<path d="M1276.448,95.532c-0.218-0.113-0.572-0.229-0.923-0.229c-0.387,0-0.588,0.154-0.588,0.399
					c0,0.229,0.188,0.356,0.615,0.514c0.613,0.219,1.021,0.559,1.021,1.089c0,0.631-0.521,1.104-1.396,1.104
					c-0.418,0-0.721-0.081-0.941-0.185l0.188-0.664c0.146,0.069,0.41,0.178,0.77,0.178c0.354,0,0.531-0.17,0.531-0.354
					c0-0.238-0.199-0.34-0.686-0.521c-0.65-0.239-0.947-0.579-0.947-1.097c0-0.618,0.467-1.146,1.483-1.146
					c0.418,0,0.832,0.116,1.043,0.232L1276.448,95.532z"/>
			</g>
		</g>
	</g>
	<g id="POS_ENTRADAPK1000_1_">
		<g>
			<path fill="#525866" d="M1248.519,97.215v0.127c0,10.537-2.832,17.987-8.407,22.16c-7.506,5.607-15.439,4.235-15.84,4.113v-5.201
				v2.603v-2.613c0.062,0.019,7.332,0.701,12.633-3.289c4.11-3.094,6.203-9.083,6.203-17.788v-0.128L1248.519,97.215
				L1248.519,97.215z"/>
		</g>
		<g>
			<g>
				<path fill="#FFFFFF" d="M1247.156,100.715c-1.396,1.393-3.666,1.393-5.062-0.002c-1.397-1.398-1.397-3.665-0.017-5.063
					c1.396-1.396,3.668-1.396,5.064,0.005C1248.547,97.045,1248.547,99.316,1247.156,100.715"/>
				<path fill="#1D1E1B" d="M1247.656,101.215c-1.683,1.682-4.396,1.682-6.062,0c-1.684-1.675-1.684-4.396-0.002-6.067
					c1.688-1.676,4.396-1.676,6.064,0C1249.337,96.821,1249.337,99.539,1247.656,101.215 M1242.603,100.206
					c1.109,1.115,2.927,1.115,4.043,0c1.115-1.117,1.115-2.931,0.007-4.054c-1.117-1.115-2.931-1.115-4.056,0
					C1241.48,97.273,1241.482,99.086,1242.603,100.206z"/>
			</g>
			<g>
				<path d="M1245.701,98.519h-1.354v0.873h1.513v0.685h-2.345v-3.688h2.271v0.688h-1.437v0.764h1.354v0.679H1245.701
					L1245.701,98.519z"/>
			</g>
		</g>
	</g>
	<g id="NEG_SAIDAPK00_3_">
		<g>
			<path fill="#525866" d="M1247.198,259.957v-0.135c0-10.855-2.931-18.537-8.672-22.838c-7.73-5.775-15.912-4.361-16.32-4.236
				v5.357v-2.686v2.688c0.066-0.02,7.562-0.721,13.021,3.393c4.238,3.188,6.396,9.354,6.396,18.33v0.131L1247.198,259.957
				L1247.198,259.957z"/>
		</g>
		<g>
			<g>
				<path fill="#FFFFFF" d="M1241.287,256.362c1.438-1.438,3.771-1.438,5.219,0.004c1.438,1.438,1.438,3.771,0.01,5.217
					c-1.438,1.438-3.777,1.438-5.225-0.004C1239.853,260.143,1239.853,257.801,1241.287,256.362"/>
				<path fill="#1D1E1B" d="M1240.771,255.846c1.729-1.729,4.522-1.729,6.243,0c1.729,1.73,1.729,4.525,0.018,6.256
					c-1.729,1.727-4.521,1.727-6.255,0C1239.042,260.369,1239.042,257.573,1240.771,255.846 M1245.98,256.883
					c-1.146-1.146-3.015-1.146-4.171,0c-1.146,1.146-1.146,3.021-0.016,4.18c1.146,1.146,3.021,1.146,4.18,0
					C1247.135,259.903,1247.135,258.041,1245.98,256.883z"/>
			</g>
			<g>
				<path d="M1245.016,257.903c-0.225-0.117-0.592-0.238-0.947-0.238c-0.396,0-0.604,0.16-0.604,0.412
					c0,0.236,0.188,0.369,0.639,0.529c0.63,0.227,1.046,0.572,1.046,1.123c0,0.646-0.539,1.139-1.438,1.139
					c-0.438,0-0.742-0.082-0.979-0.188l0.188-0.688c0.146,0.07,0.422,0.188,0.789,0.188c0.366,0,0.551-0.18,0.551-0.365
					c0-0.246-0.207-0.354-0.701-0.537c-0.672-0.248-0.979-0.598-0.979-1.131c0-0.639,0.479-1.184,1.522-1.184
					c0.438,0,0.857,0.119,1.076,0.24L1245.016,257.903z"/>
			</g>
		</g>
	</g>
	<g id="NEG_SAIDAPK00_4_">
		<g>
			<path fill="#525866" d="M1693.198,259.957v-0.135c0-10.855-2.931-18.537-8.672-22.838c-7.73-5.775-15.912-4.361-16.32-4.236
				v5.357v-2.686v2.688c0.066-0.02,7.562-0.721,13.021,3.393c4.238,3.188,6.396,9.354,6.396,18.33v0.131L1693.198,259.957
				L1693.198,259.957z"/>
		</g>
		<g>
			<g>
				<path fill="#FFFFFF" d="M1687.287,256.362c1.438-1.438,3.771-1.438,5.219,0.004c1.438,1.438,1.438,3.771,0.01,5.217
					c-1.438,1.438-3.777,1.438-5.225-0.004C1685.853,260.143,1685.853,257.801,1687.287,256.362"/>
				<path fill="#1D1E1B" d="M1686.771,255.846c1.729-1.729,4.522-1.729,6.243,0c1.729,1.73,1.729,4.525,0.018,6.256
					c-1.729,1.727-4.521,1.727-6.255,0C1685.042,260.369,1685.042,257.573,1686.771,255.846 M1691.98,256.883
					c-1.146-1.146-3.015-1.146-4.171,0c-1.146,1.146-1.146,3.021-0.016,4.18c1.146,1.146,3.021,1.146,4.18,0
					C1693.135,259.903,1693.135,258.041,1691.98,256.883z"/>
			</g>
			<g>
				<path d="M1691.016,257.903c-0.225-0.117-0.592-0.238-0.947-0.238c-0.396,0-0.604,0.16-0.604,0.412
					c0,0.236,0.188,0.369,0.639,0.529c0.63,0.227,1.046,0.572,1.046,1.123c0,0.646-0.539,1.139-1.438,1.139
					c-0.438,0-0.742-0.082-0.979-0.188l0.188-0.688c0.146,0.07,0.422,0.188,0.789,0.188c0.366,0,0.551-0.18,0.551-0.365
					c0-0.246-0.207-0.354-0.701-0.537c-0.672-0.248-0.979-0.598-0.979-1.131c0-0.639,0.479-1.184,1.522-1.184
					c0.438,0,0.857,0.119,1.076,0.24L1691.016,257.903z"/>
			</g>
		</g>
	</g>
	<g id="NEG_ENTRADAPK00_3_">
		<g>
			<path fill="#525866" d="M1272.021,260.473v-0.135c0-10.855,2.933-18.539,8.675-22.838c7.737-5.773,15.916-4.359,16.328-4.236
				v5.357v-2.686v2.689c-0.067-0.021-7.562-0.723-13.021,3.391c-4.238,3.189-6.396,9.357-6.396,18.33v0.131h-5.595L1272.021,260.473
				L1272.021,260.473z"/>
		</g>
		<g>
			<g>
				<path fill="#FFFFFF" d="M1278.164,262.1c-1.439,1.438-3.779,1.438-5.22-0.006c-1.438-1.439-1.438-3.771-0.014-5.219
					c1.438-1.438,3.777-1.438,5.229,0.004C1279.597,258.313,1279.597,260.658,1278.164,262.1"/>
				<path fill="#1D1E1B" d="M1278.677,262.61c-1.729,1.729-4.527,1.729-6.248,0c-1.729-1.729-1.729-4.525-0.006-6.252
					c1.73-1.729,4.529-1.729,6.256,0C1280.412,258.088,1280.412,260.885,1278.677,262.61 M1273.469,261.574
					c1.147,1.146,3.02,1.146,4.168,0c1.147-1.152,1.147-3.021,0.004-4.18c-1.146-1.146-3.016-1.146-4.18,0
					C1272.314,258.557,1272.317,260.418,1273.469,261.574z"/>
			</g>
			<g>
				<path d="M1276.666,259.838h-1.396v0.898h1.563v0.703h-2.414v-3.799h2.344v0.707h-1.479v0.789h1.396L1276.666,259.838
					L1276.666,259.838z"/>
			</g>
		</g>
	</g>
	<g id="POS_SAIDAPK1000_4_">
		<g>
			<path fill="#525866" d="M1344.224,95.602v0.127c0,10.537,2.832,17.986,8.414,22.16c7.516,5.607,15.445,4.235,15.84,4.113v-5.201
				v2.602v-2.612c-0.062,0.019-7.332,0.7-12.637-3.289c-4.111-3.095-6.203-9.083-6.203-17.789v-0.127L1344.224,95.602
				L1344.224,95.602z"/>
		</g>
		<g>
			<g>
				<path fill="#FFFFFF" d="M1344.669,94.038c1.396-1.396,3.655-1.396,5.062,0.003c1.396,1.396,1.396,3.664,0.015,5.062
					c-1.396,1.398-3.672,1.398-5.065-0.002C1343.274,97.708,1343.274,95.433,1344.669,94.038"/>
				<path fill="#1D1E1B" d="M1344.169,93.536c1.678-1.68,4.391-1.68,6.062,0c1.688,1.674,1.688,4.396,0.013,6.067
					c-1.686,1.675-4.396,1.676-6.062,0C1342.486,97.928,1342.486,95.21,1344.169,93.536 M1349.22,94.546
					c-1.117-1.115-2.924-1.115-4.045,0c-1.115,1.117-1.115,2.931-0.01,4.055c1.104,1.115,2.924,1.115,4.055,0
					C1350.342,97.473,1350.338,95.663,1349.22,94.546z"/>
			</g>
			<g>
				<path d="M1348.287,95.532c-0.218-0.113-0.572-0.229-0.923-0.229c-0.386,0-0.588,0.154-0.588,0.399
					c0,0.229,0.188,0.356,0.615,0.514c0.613,0.219,1.021,0.559,1.021,1.089c0,0.631-0.521,1.104-1.396,1.104
					c-0.418,0-0.721-0.081-0.941-0.185l0.188-0.664c0.146,0.069,0.41,0.178,0.77,0.178c0.354,0,0.532-0.17,0.532-0.354
					c0-0.238-0.2-0.34-0.687-0.521c-0.65-0.239-0.947-0.579-0.947-1.097c0-0.618,0.468-1.146,1.484-1.146
					c0.418,0,0.832,0.116,1.043,0.232L1348.287,95.532z"/>
			</g>
		</g>
	</g>
	<g id="NEG_ENTRADAPK00_4_">
		<g>
			<path fill="#525866" d="M1343.86,260.473v-0.135c0-10.855,2.934-18.539,8.676-22.838c7.735-5.773,15.916-4.359,16.327-4.236
				v5.357v-2.686v2.689c-0.067-0.021-7.562-0.723-13.021,3.391c-4.238,3.189-6.396,9.357-6.396,18.33v0.131h-5.595L1343.86,260.473
				L1343.86,260.473z"/>
		</g>
		<g>
			<g>
				<path fill="#FFFFFF" d="M1350.004,262.1c-1.438,1.438-3.779,1.438-5.219-0.006c-1.438-1.439-1.438-3.771-0.014-5.219
					c1.438-1.438,3.776-1.438,5.229,0.004C1351.437,258.313,1351.437,260.658,1350.004,262.1"/>
				<path fill="#1D1E1B" d="M1350.517,262.61c-1.729,1.729-4.527,1.729-6.248,0c-1.729-1.729-1.729-4.525-0.006-6.252
					c1.73-1.729,4.529-1.729,6.256,0C1352.252,258.088,1352.252,260.885,1350.517,262.61 M1345.308,261.574
					c1.148,1.146,3.021,1.146,4.168,0c1.148-1.152,1.148-3.021,0.004-4.18c-1.146-1.146-3.016-1.146-4.18,0
					C1344.154,258.557,1344.156,260.418,1345.308,261.574z"/>
			</g>
			<g>
				<path d="M1348.506,259.838h-1.396v0.898h1.562v0.703h-2.414v-3.799h2.345v0.707h-1.479v0.789h1.396L1348.506,259.838
					L1348.506,259.838z"/>
			</g>
		</g>
	</g>
	<g>
		<g>
			<g id="POSPK3900">
				<rect id="POSPK3900_12" x="0" y="187.496" fill="#3D414D" width="36" height="21"/>
				<rect id="POSPK3900_11" x="0" y="207.496" fill="#3D414D" width="36" height="21"/>
			</g>
			<g id="NEGPK3900">
				<rect id="NEGPK3900_12" x="0" y="146.497" fill="#3D414D" width="36" height="21"/>
				<rect id="NEGPK3900_11" x="0" y="126.497" fill="#3D414D" width="36" height="21"/>
			</g>
			<g>
				<rect x="12.926" y="207.522" fill="#FFFFFF" width="10.007" height="2"/>
				<rect x="12.926" y="146.48" fill="#FFFFFF" width="10.007" height="2"/>
			</g>
		</g>
		<rect x="35.5" y="182.887" fill="#FFFFFF" width="0.5" height="4"/>
	</g>
	<g>
		<g>
			<g id="POSPK4000">
				<rect id="POSPK4000_12" x="36" y="187.496" fill="#3D414D" width="36" height="21"/>
				<rect id="POSPK4000_11" x="36" y="207.496" fill="#3D414D" width="36" height="21"/>
			</g>
			<g id="NEGPK4000">
				<rect id="NEGPK4000_12" x="36" y="146.497" fill="#3D414D" width="36" height="21"/>
				<rect id="NEGPK4000_11" x="36" y="126.497" fill="#3D414D" width="36" height="21"/>
			</g>
			<g>
				<rect x="48.926" y="207.522" fill="#FFFFFF" width="10.007" height="2"/>
				<rect x="48.926" y="146.48" fill="#FFFFFF" width="10.007" height="2"/>
			</g>
		</g>
		<rect x="71.5" y="182.887" fill="#FFFFFF" width="0.5" height="4"/>
	</g>
	<g>
		<g>
			<g id="POSPK4100">
				<rect id="POSPK4100_12" x="72" y="187.496" fill="#3D414D" width="36" height="21"/>
				<rect id="POSPK4100_11" x="72" y="207.496" fill="#3D414D" width="36" height="21"/>
			</g>
			<g id="NEGPK4100">
				<rect id="NEGPK4100_12" x="72" y="146.497" fill="#3D414D" width="36" height="21"/>
				<rect id="NEGPK4100_11" x="72" y="126.497" fill="#3D414D" width="36" height="21"/>
			</g>
			<g>
				<rect x="84.926" y="207.522" fill="#FFFFFF" width="10.007" height="2"/>
				<rect x="84.926" y="146.48" fill="#FFFFFF" width="10.007" height="2"/>
			</g>
		</g>
		<rect x="107.5" y="182.887" fill="#FFFFFF" width="0.5" height="4"/>
	</g>
	<g>
		<g>
			<g id="POSPK4200">
				<rect id="POSPK4200_12" x="108" y="187.496" fill="#3D414D" width="36" height="21"/>
				<rect id="POSPK4200_11" x="108" y="207.496" fill="#3D414D" width="36" height="21"/>
			</g>
			<g id="NEGPK4200">
				<rect id="NEGPK4200_12" x="108" y="146.497" fill="#3D414D" width="36" height="21"/>
				<rect id="NEGPK4200_11" x="108" y="126.497" fill="#3D414D" width="36" height="21"/>
			</g>
			<g>
				<rect x="120.926" y="207.522" fill="#FFFFFF" width="10.007" height="2"/>
				<rect x="120.926" y="146.48" fill="#FFFFFF" width="10.007" height="2"/>
			</g>
		</g>
		<rect x="143.5" y="182.887" fill="#FFFFFF" width="0.5" height="4"/>
	</g>
	<g>
		<g>
			<g id="POSPK4300">
				<rect id="POSPK4300_12" x="144" y="187.496" fill="#3D414D" width="36" height="21"/>
				<rect id="POSPK4300_11" x="144" y="207.496" fill="#3D414D" width="36" height="21"/>
			</g>
			<g id="NEGPK4300">
				<rect id="NEGPK4300_12" x="144" y="146.497" fill="#3D414D" width="36" height="21"/>
				<rect id="NEGPK4300_11" x="144" y="126.497" fill="#3D414D" width="36" height="21"/>
			</g>
			<g>
				<rect x="156.926" y="207.522" fill="#FFFFFF" width="10.007" height="2"/>
				<rect x="156.926" y="146.48" fill="#FFFFFF" width="10.007" height="2"/>
			</g>
		</g>
		<rect x="179.5" y="182.887" fill="#FFFFFF" width="0.5" height="4"/>
	</g>
	<g>
		<g>
			<g id="POSPK4400">
				<rect id="POSPK4400_12" x="180" y="187.496" fill="#3D414D" width="36" height="21"/>
				<rect id="POSPK4400_11" x="180" y="207.496" fill="#3D414D" width="36" height="21"/>
			</g>
			<g id="NEGPK4400">
				<rect id="NEGPK4400_12" x="180" y="146.497" fill="#3D414D" width="36" height="21"/>
				<rect id="NEGPK4400_11" x="180" y="126.497" fill="#3D414D" width="36" height="21"/>
			</g>
			<g>
				<rect x="192.926" y="207.522" fill="#FFFFFF" width="10.007" height="2"/>
				<rect x="192.926" y="146.48" fill="#FFFFFF" width="10.007" height="2"/>
			</g>
		</g>
		<rect x="215.5" y="182.887" fill="#FFFFFF" width="0.5" height="4"/>
	</g>
	<g>
		<g>
			<g id="POSPK4500">
				<rect id="POSPK4500_12" x="216" y="187.496" fill="#3D414D" width="36" height="21"/>
				<rect id="POSPK4500_11" x="216" y="207.496" fill="#3D414D" width="36" height="21"/>
			</g>
			<g id="NEGPK4500">
				<rect id="NEGPK4500_12" x="216" y="146.497" fill="#3D414D" width="36" height="21"/>
				<rect id="NEGPK4500_11" x="216" y="126.497" fill="#3D414D" width="36" height="21"/>
			</g>
			<g>
				<rect x="228.926" y="207.522" fill="#FFFFFF" width="10.007" height="2"/>
				<rect x="228.926" y="146.48" fill="#FFFFFF" width="10.007" height="2"/>
			</g>
		</g>
		<rect x="251.5" y="182.887" fill="#FFFFFF" width="0.5" height="4"/>
	</g>
	<g>
		<g>
			<g id="POSPK4600">
				<rect id="POSPK4600_12" x="252" y="187.496" fill="#3D414D" width="36" height="21"/>
				<rect id="POSPK4600_11" x="252" y="207.496" fill="#3D414D" width="36" height="21"/>
			</g>
			<g id="NEGPK4600">
				<rect id="NEGPK4600_12" x="252" y="146.497" fill="#3D414D" width="36" height="21"/>
				<rect id="NEGPK4600_11" x="252" y="126.497" fill="#3D414D" width="36" height="21"/>
			</g>
			<g>
				<rect x="264.926" y="207.522" fill="#FFFFFF" width="10.007" height="2"/>
				<rect x="264.926" y="146.48" fill="#FFFFFF" width="10.007" height="2"/>
			</g>
		</g>
		<rect x="287.5" y="182.887" fill="#FFFFFF" width="0.5" height="4"/>
	</g>
	<g>
		<g>
			<g id="POSPK4700">
				<rect id="POSPK4700_12" x="288" y="187.496" fill="#3D414D" width="36" height="21"/>
				<rect id="POSPK4700_11" x="288" y="207.496" fill="#3D414D" width="36" height="21"/>
			</g>
			<g id="NEGPK4700">
				<rect id="NEGPK4700_12" x="288" y="146.497" fill="#3D414D" width="36" height="21"/>
				<rect id="NEGPK4700_11" x="288" y="126.497" fill="#3D414D" width="36" height="21"/>
			</g>
			<g>
				<rect x="300.926" y="207.522" fill="#FFFFFF" width="10.007" height="2"/>
				<rect x="300.926" y="146.48" fill="#FFFFFF" width="10.007" height="2"/>
			</g>
		</g>
		<rect x="323.5" y="182.887" fill="#FFFFFF" width="0.5" height="4"/>
	</g>
	<g>
		<g>
			<g id="POSPK4800">
				<rect id="POSPK4800_12" x="324" y="187.496" fill="#3D414D" width="36" height="21"/>
				<rect id="POSPK4800_11" x="324" y="207.496" fill="#3D414D" width="36" height="21"/>
			</g>
			<g id="NEGPK4800">
				<rect id="NEGPK4800_12" x="324" y="146.497" fill="#3D414D" width="36" height="21"/>
				<rect id="NEGPK4800_11" x="324" y="126.497" fill="#3D414D" width="36" height="21"/>
			</g>
			<g>
				<rect x="336.926" y="207.522" fill="#FFFFFF" width="10.007" height="2"/>
				<rect x="336.926" y="146.48" fill="#FFFFFF" width="10.007" height="2"/>
			</g>
		</g>
		<rect x="359.5" y="182.887" fill="#FFFFFF" width="0.5" height="4"/>
	</g>
	<g>
		<g>
			<g id="POSPK4900">
				<rect id="POSPK4900_12" x="360" y="187.496" fill="#3D414D" width="36" height="21"/>
				<rect id="POSPK4900_11" x="360" y="207.496" fill="#3D414D" width="36" height="21"/>
			</g>
			<g id="NEGPK4900">
				<rect id="NEGPK4900_12" x="360" y="146.497" fill="#3D414D" width="36" height="21"/>
				<rect id="NEGPK4900_11" x="360" y="126.497" fill="#3D414D" width="36" height="21"/>
			</g>
			<g>
				<rect x="372.926" y="207.522" fill="#FFFFFF" width="10.007" height="2"/>
				<rect x="372.926" y="146.48" fill="#FFFFFF" width="10.007" height="2"/>
			</g>
		</g>
		<rect x="395.5" y="182.887" fill="#FFFFFF" width="0.5" height="4"/>
	</g>
	<g>
		<g>
			<g id="POSPK5000">
				<rect id="POSPK5000_12" x="396" y="187.496" fill="#3D414D" width="36.001" height="21"/>
				<rect id="POSPK5000_11" x="396" y="207.496" fill="#3D414D" width="36.001" height="21"/>
			</g>
			<g id="NEGPK5000">
				<rect id="NEGPK5000_12" x="396" y="146.497" fill="#3D414D" width="36.001" height="21"/>
				<rect id="NEGPK5000_11" x="396" y="126.497" fill="#3D414D" width="36.001" height="21"/>
			</g>
			<g>
				<rect x="408.926" y="207.522" fill="#FFFFFF" width="10.007" height="2"/>
				<rect x="408.926" y="146.48" fill="#FFFFFF" width="10.007" height="2"/>
			</g>
		</g>
		<rect x="431.501" y="182.887" fill="#FFFFFF" width="0.5" height="4"/>
	</g>
	<g>
		<g>
			<g id="POSPK5100">
				<rect id="POSPK5100_12" x="432.001" y="187.496" fill="#3D414D" width="36" height="21"/>
				<rect id="POSPK5100_11" x="432.001" y="207.496" fill="#3D414D" width="36" height="21"/>
			</g>
			<g id="NEGPK5100">
				<rect id="NEGPK5100_12" x="432.001" y="146.497" fill="#3D414D" width="36" height="21"/>
				<rect id="NEGPK5100_11" x="432.001" y="126.497" fill="#3D414D" width="36" height="21"/>
			</g>
			<g>
				<rect x="444.926" y="207.522" fill="#FFFFFF" width="10.006" height="2"/>
				<rect x="444.926" y="146.48" fill="#FFFFFF" width="10.006" height="2"/>
			</g>
		</g>
		<rect x="467.501" y="182.887" fill="#FFFFFF" width="0.5" height="4"/>
	</g>
	<g>
		<g>
			<g id="POSPK5200">
				<rect id="POSPK5200_12" x="468.001" y="187.496" fill="#3D414D" width="36" height="21"/>
				<rect id="POSPK5200_11" x="468.001" y="207.496" fill="#3D414D" width="36" height="21"/>
			</g>
			<g id="NEGPK5200">
				<rect id="NEGPK5200_12" x="468.001" y="146.497" fill="#3D414D" width="36" height="21"/>
				<rect id="NEGPK5200_11" x="468.001" y="126.497" fill="#3D414D" width="36" height="21"/>
			</g>
			<g>
				<rect x="480.926" y="207.522" fill="#FFFFFF" width="10.006" height="2"/>
				<rect x="480.926" y="146.48" fill="#FFFFFF" width="10.006" height="2"/>
			</g>
		</g>
		<rect x="503.501" y="182.887" fill="#FFFFFF" width="0.5" height="4"/>
	</g>
	<g>
		<g>
			<g id="POSPK5300">
				<rect id="POSPK5300_12" x="504.001" y="187.496" fill="#3D414D" width="36" height="21"/>
				<rect id="POSPK5300_11" x="504.001" y="207.496" fill="#3D414D" width="36" height="21"/>
			</g>
			<g id="NEGPK5300">
				<rect id="NEGPK5300_12" x="504.001" y="146.497" fill="#3D414D" width="36" height="21"/>
				<rect id="NEGPK5300_11" x="504.001" y="126.497" fill="#3D414D" width="36" height="21"/>
			</g>
			<g>
				<rect x="516.926" y="207.522" fill="#FFFFFF" width="10.006" height="2"/>
				<rect x="516.926" y="146.48" fill="#FFFFFF" width="10.006" height="2"/>
			</g>
		</g>
		<rect x="539.501" y="182.887" fill="#FFFFFF" width="0.5" height="4"/>
	</g>
	<g>
		<g>
			<g id="POSPK5400">
				<rect id="POSPK5400_12" x="540.001" y="187.496" fill="#3D414D" width="36" height="21"/>
				<rect id="POSPK5400_11" x="540.001" y="207.496" fill="#3D414D" width="36" height="21"/>
			</g>
			<g id="NEGPK5400">
				<rect id="NEGPK5400_12" x="540.001" y="146.497" fill="#3D414D" width="36" height="21"/>
				<rect id="NEGPK5400_11" x="540.001" y="126.497" fill="#3D414D" width="36" height="21"/>
			</g>
			<g>
				<rect x="552.926" y="207.522" fill="#FFFFFF" width="10.006" height="2"/>
				<rect x="552.926" y="146.48" fill="#FFFFFF" width="10.006" height="2"/>
			</g>
		</g>
		<rect x="575.501" y="182.887" fill="#FFFFFF" width="0.5" height="4"/>
	</g>
	<g>
		<g>
			<g id="POSPK5500">
				<rect id="POSPK5500_12" x="576.001" y="187.496" fill="#3D414D" width="36" height="21"/>
				<rect id="POSPK5500_11" x="576.001" y="207.496" fill="#3D414D" width="36" height="21"/>
			</g>
			<g id="NEGPK5500">
				<rect id="NEGPK5500_12" x="576.001" y="146.497" fill="#3D414D" width="36" height="21"/>
				<rect id="NEGPK5500_11" x="576.001" y="126.497" fill="#3D414D" width="36" height="21"/>
			</g>
			<g>
				<rect x="588.926" y="207.522" fill="#FFFFFF" width="10.006" height="2"/>
				<rect x="588.926" y="146.48" fill="#FFFFFF" width="10.006" height="2"/>
			</g>
		</g>
		<rect x="611.501" y="182.887" fill="#FFFFFF" width="0.5" height="4"/>
	</g>
	<g>
		<g>
			<g id="POSPK5600">
				<rect id="POSPK5600_12" x="612.001" y="187.496" fill="#3D414D" width="36" height="21"/>
				<rect id="POSPK5600_11" x="612.001" y="207.496" fill="#3D414D" width="36" height="21"/>
			</g>
			<g id="NEGPK5600">
				<rect id="NEGPK5600_12" x="612.001" y="146.497" fill="#3D414D" width="36" height="21"/>
				<rect id="NEGPK5600_11" x="612.001" y="126.497" fill="#3D414D" width="36" height="21"/>
			</g>
			<g>
				<rect x="624.926" y="207.522" fill="#FFFFFF" width="10.006" height="2"/>
				<rect x="624.926" y="146.48" fill="#FFFFFF" width="10.006" height="2"/>
			</g>
		</g>
		<rect x="647.501" y="182.887" fill="#FFFFFF" width="0.5" height="4"/>
	</g>
	<g>
		<g>
			<g id="POSPK5700">
				<rect id="POSPK5700_12" x="648.001" y="187.496" fill="#3D414D" width="36" height="21"/>
				<rect id="POSPK5700_11" x="648.001" y="207.496" fill="#3D414D" width="36" height="21"/>
			</g>
			<g id="NEGPK5700">
				<rect id="NEGPK5700_12" x="648.001" y="146.497" fill="#3D414D" width="36" height="21"/>
				<rect id="NEGPK5700_11" x="648.001" y="126.497" fill="#3D414D" width="36" height="21"/>
			</g>
			<g>
				<rect x="660.926" y="207.522" fill="#FFFFFF" width="10.006" height="2"/>
				<rect x="660.926" y="146.48" fill="#FFFFFF" width="10.006" height="2"/>
			</g>
		</g>
		<rect x="683.501" y="182.887" fill="#FFFFFF" width="0.5" height="4"/>
	</g>
	<g>
		<g>
			<g id="POSPK5800">
				<rect id="POSPK5800_12" x="684.001" y="187.496" fill="#3D414D" width="36" height="21"/>
				<rect id="POSPK5800_11" x="684.001" y="207.496" fill="#3D414D" width="36" height="21"/>
			</g>
			<g id="NEGPK5800">
				<rect id="NEGPK5800_12" x="684.001" y="146.497" fill="#3D414D" width="36" height="21"/>
				<rect id="NEGPK5800_11" x="684.001" y="126.497" fill="#3D414D" width="36" height="21"/>
			</g>
			<g>
				<rect x="696.926" y="207.522" fill="#FFFFFF" width="10.006" height="2"/>
				<rect x="696.926" y="146.48" fill="#FFFFFF" width="10.006" height="2"/>
			</g>
		</g>
		<rect x="719.501" y="182.887" fill="#FFFFFF" width="0.5" height="4"/>
	</g>
	<g>
		<g>
			<g id="POSPK5900">
				<rect id="POSPK5900_12" x="720.001" y="187.496" fill="#3D414D" width="36" height="21"/>
				<rect id="POSPK5900_11" x="720.001" y="207.496" fill="#3D414D" width="36" height="21"/>
			</g>
			<g id="NEGPK5900">
				<rect id="NEGPK5900_12" x="720.001" y="146.497" fill="#3D414D" width="36" height="21"/>
				<rect id="NEGPK5900_11" x="720.001" y="126.497" fill="#3D414D" width="36" height="21"/>
			</g>
			<g>
				<rect x="732.926" y="207.522" fill="#FFFFFF" width="10.006" height="2"/>
				<rect x="732.926" y="146.48" fill="#FFFFFF" width="10.006" height="2"/>
			</g>
		</g>
		<rect x="755.501" y="182.887" fill="#FFFFFF" width="0.5" height="4"/>
	</g>
	<g>
		<g>
			<g id="POSPK6000">
				<rect id="POSPK6000_12" x="756.001" y="187.496" fill="#3D414D" width="36" height="21"/>
				<rect id="POSPK6000_11" x="756.001" y="207.496" fill="#3D414D" width="36" height="21"/>
			</g>
			<g id="NEGPK6000">
				<rect id="NEGPK6000_12" x="756.001" y="146.497" fill="#3D414D" width="36" height="21"/>
				<rect id="NEGPK6000_11" x="756.001" y="126.497" fill="#3D414D" width="36" height="21"/>
			</g>
			<g>
				<rect x="768.926" y="207.522" fill="#FFFFFF" width="10.006" height="2"/>
				<rect x="768.926" y="146.48" fill="#FFFFFF" width="10.006" height="2"/>
			</g>
		</g>
		<rect x="791.501" y="182.887" fill="#FFFFFF" width="0.5" height="4"/>
	</g>
	<g>
		<g>
			<g id="POSPK6100">
				<rect id="POSPK6100_12" x="792.001" y="187.496" fill="#3D414D" width="36" height="21"/>
				<rect id="POSPK6100_11" x="792.001" y="207.496" fill="#3D414D" width="36" height="21"/>
			</g>
			<g id="NEGPK6100">
				<rect id="NEGPK6100_12" x="792.001" y="146.497" fill="#3D414D" width="36" height="21"/>
				<rect id="NEGPK6100_11" x="792.001" y="126.497" fill="#3D414D" width="36" height="21"/>
			</g>
			<g>
				<rect x="804.926" y="207.522" fill="#FFFFFF" width="10.006" height="2"/>
				<rect x="804.926" y="146.48" fill="#FFFFFF" width="10.006" height="2"/>
			</g>
		</g>
		<rect x="827.501" y="182.887" fill="#FFFFFF" width="0.5" height="4"/>
	</g>
	<g>
		<g>
			<g id="POSPK6200">
				<rect id="POSPK6200_12" x="828.001" y="187.496" fill="#3D414D" width="36" height="21"/>
				<rect id="POSPK6200_11" x="828.001" y="207.496" fill="#3D414D" width="36" height="21"/>
			</g>
			<g id="NEGPK6200">
				<rect id="NEGPK6200_12" x="828.001" y="146.497" fill="#3D414D" width="36" height="21"/>
				<rect id="NEGPK6200_11" x="828.001" y="126.497" fill="#3D414D" width="36" height="21"/>
			</g>
			<g>
				<rect x="840.926" y="207.522" fill="#FFFFFF" width="10.006" height="2"/>
				<rect x="840.926" y="146.48" fill="#FFFFFF" width="10.006" height="2"/>
			</g>
		</g>
		<rect x="863.501" y="182.887" fill="#FFFFFF" width="0.5" height="4"/>
	</g>
	<g>
		<g>
			<g id="POSPK6300">
				<rect id="POSPK6300_12" x="864.001" y="187.496" fill="#3D414D" width="36" height="21"/>
				<rect id="POSPK6300_11" x="864.001" y="207.496" fill="#3D414D" width="36" height="21"/>
			</g>
			<g id="NEGPK6300">
				<rect id="NEGPK6300_12" x="864.001" y="146.497" fill="#3D414D" width="36" height="21"/>
				<rect id="NEGPK6300_11" x="864.001" y="126.497" fill="#3D414D" width="36" height="21"/>
			</g>
			<g>
				<rect x="876.926" y="207.522" fill="#FFFFFF" width="10.006" height="2"/>
				<rect x="876.926" y="146.48" fill="#FFFFFF" width="10.006" height="2"/>
			</g>
		</g>
		<rect x="899.501" y="182.887" fill="#FFFFFF" width="0.5" height="4"/>
	</g>
	<g>
		<g>
			<g id="POSPK6400">
				<rect id="POSPK6400_12" x="900.001" y="187.496" fill="#3D414D" width="36" height="21"/>
				<rect id="POSPK6400_11" x="900.001" y="207.496" fill="#3D414D" width="36" height="21"/>
			</g>
			<g id="NEGPK6400">
				<rect id="NEGPK6400_12" x="900.001" y="146.497" fill="#3D414D" width="36" height="21"/>
				<rect id="NEGPK6400_11" x="900.001" y="126.497" fill="#3D414D" width="36" height="21"/>
			</g>
			<g>
				<rect x="912.926" y="207.522" fill="#FFFFFF" width="10.006" height="2"/>
				<rect x="912.926" y="146.48" fill="#FFFFFF" width="10.006" height="2"/>
			</g>
		</g>
		<rect x="935.501" y="182.887" fill="#FFFFFF" width="0.5" height="4"/>
	</g>
	<g>
		<g>
			<g id="POSPK6500">
				<rect id="POSPK6500_12" x="936.001" y="187.496" fill="#3D414D" width="36" height="21"/>
				<rect id="POSPK6500_11" x="936.001" y="207.496" fill="#3D414D" width="36" height="21"/>
			</g>
			<g id="NEGPK6500">
				<rect id="NEGPK6500_12" x="936.001" y="146.497" fill="#3D414D" width="36" height="21"/>
				<rect id="NEGPK6500_11" x="936.001" y="126.497" fill="#3D414D" width="36" height="21"/>
			</g>
			<g>
				<rect x="948.926" y="207.522" fill="#FFFFFF" width="10.006" height="2"/>
				<rect x="948.926" y="146.48" fill="#FFFFFF" width="10.006" height="2"/>
			</g>
		</g>
		<rect x="971.501" y="182.887" fill="#FFFFFF" width="0.5" height="4"/>
	</g>
	<g>
		<g>
			<g id="POSPK6600">
				<rect id="POSPK6600_12" x="972.001" y="187.496" fill="#3D414D" width="36" height="21"/>
				<rect id="POSPK6600_11" x="972.001" y="207.496" fill="#3D414D" width="36" height="21"/>
			</g>
			<g id="NEGPK6600">
				<rect id="NEGPK6600_12" x="972.001" y="146.497" fill="#3D414D" width="36" height="21"/>
				<rect id="NEGPK6600_11" x="972.001" y="126.497" fill="#3D414D" width="36" height="21"/>
			</g>
			<g>
				<rect x="984.926" y="207.522" fill="#FFFFFF" width="10.006" height="2"/>
				<rect x="984.926" y="146.48" fill="#FFFFFF" width="10.006" height="2"/>
			</g>
		</g>
		<rect x="1007.501" y="182.887" fill="#FFFFFF" width="0.5" height="4"/>
	</g>
	<g>
		<g>
			<g id="POSPK6700">
				<rect id="POSPK6700_12" x="1008.001" y="187.496" fill="#3D414D" width="36" height="21"/>
				<rect id="POSPK6700_11" x="1008.001" y="207.496" fill="#3D414D" width="36" height="21"/>
			</g>
			<g id="NEGPK6700">
				<rect id="NEGPK6700_12" x="1008.001" y="146.497" fill="#3D414D" width="36" height="21"/>
				<rect id="NEGPK6700_11" x="1008.001" y="126.497" fill="#3D414D" width="36" height="21"/>
			</g>
			<g>
				<rect x="1020.926" y="207.522" fill="#FFFFFF" width="10.006" height="2"/>
				<rect x="1020.926" y="146.48" fill="#FFFFFF" width="10.006" height="2"/>
			</g>
		</g>
		<rect x="1043.501" y="182.887" fill="#FFFFFF" width="0.5" height="4"/>
	</g>
	<g>
		<g>
			<g id="POSPK6800">
				<rect id="POSPK6800_12" x="1044.001" y="187.496" fill="#3D414D" width="36" height="21"/>
				<rect id="POSPK6800_11" x="1044.001" y="207.496" fill="#3D414D" width="36" height="21"/>
			</g>
			<g id="NEGPK6800">
				<rect id="NEGPK6800_12" x="1044.001" y="146.497" fill="#3D414D" width="36" height="21"/>
				<rect id="NEGPK6800_11" x="1044.001" y="126.497" fill="#3D414D" width="36" height="21"/>
			</g>
			<g>
				<rect x="1056.926" y="207.522" fill="#FFFFFF" width="10.006" height="2"/>
				<rect x="1056.926" y="146.48" fill="#FFFFFF" width="10.006" height="2"/>
			</g>
		</g>
		<rect x="1079.501" y="182.887" fill="#FFFFFF" width="0.5" height="4"/>
	</g>
	<g>
		<g>
			<g id="POSPK6900">
				<rect id="POSPK6900_12" x="1080.001" y="187.496" fill="#3D414D" width="36" height="21"/>
				<rect id="POSPK6900_11" x="1080.001" y="207.496" fill="#3D414D" width="36" height="21"/>
			</g>
			<g id="NEGPK6900">
				<rect id="NEGPK6900_12" x="1080.001" y="146.497" fill="#3D414D" width="36" height="21"/>
				<rect id="NEGPK6900_11" x="1080.001" y="126.497" fill="#3D414D" width="36" height="21"/>
			</g>
			<g>
				<rect x="1092.926" y="207.522" fill="#FFFFFF" width="10.006" height="2"/>
				<rect x="1092.926" y="146.48" fill="#FFFFFF" width="10.006" height="2"/>
			</g>
		</g>
		<rect x="1115.501" y="182.887" fill="#FFFFFF" width="0.5" height="4"/>
	</g>
	<g>
		<g>
			<g id="POSPK7000">
				<rect id="POSPK7000_12" x="1116.001" y="187.496" fill="#3D414D" width="36" height="21"/>
				<rect id="POSPK7000_11" x="1116.001" y="207.496" fill="#3D414D" width="36" height="21"/>
			</g>
			<g id="NEGPK7000">
				<rect id="NEGPK7000_12" x="1116.001" y="146.497" fill="#3D414D" width="36" height="21"/>
				<rect id="NEGPK7000_11" x="1116.001" y="126.497" fill="#3D414D" width="36" height="21"/>
			</g>
			<g>
				<rect x="1128.926" y="207.522" fill="#FFFFFF" width="10.006" height="2"/>
				<rect x="1128.926" y="146.48" fill="#FFFFFF" width="10.006" height="2"/>
			</g>
		</g>
		<rect x="1151.501" y="182.887" fill="#FFFFFF" width="0.5" height="4"/>
	</g>
	<g>
		<g>
			<g id="POSPK7100">
				<rect id="POSPK7100_12" x="1152.001" y="187.496" fill="#3D414D" width="36" height="21"/>
				<rect id="POSPK7100_11" x="1152.001" y="207.496" fill="#3D414D" width="36" height="21"/>
			</g>
			<g id="NEGPK7100">
				<rect id="NEGPK7100_12" x="1152.001" y="146.497" fill="#3D414D" width="36" height="21"/>
				<rect id="NEGPK7100_11" x="1152.001" y="126.497" fill="#3D414D" width="36" height="21"/>
			</g>
			<g>
				<rect x="1164.926" y="207.522" fill="#FFFFFF" width="10.006" height="2"/>
				<rect x="1164.926" y="146.48" fill="#FFFFFF" width="10.006" height="2"/>
			</g>
		</g>
		<rect x="1187.501" y="182.887" fill="#FFFFFF" width="0.5" height="4"/>
	</g>
	<g>
		<g>
			<g id="POSPK7200">
				<rect id="POSPK7200_12" x="1188.001" y="187.496" fill="#3D414D" width="36" height="21"/>
				<rect id="POSPK7200_11" x="1188.001" y="207.496" fill="#3D414D" width="36" height="21"/>
			</g>
			<g id="NEGPK7200">
				<rect id="NEGPK7200_12" x="1188.001" y="146.497" fill="#3D414D" width="36" height="21"/>
				<rect id="NEGPK7200_11" x="1188.001" y="126.497" fill="#3D414D" width="36" height="21"/>
			</g>
			<g>
				<rect x="1200.926" y="207.522" fill="#FFFFFF" width="10.006" height="2"/>
				<rect x="1200.926" y="146.48" fill="#FFFFFF" width="10.006" height="2"/>
			</g>
		</g>
		<rect x="1223.501" y="182.887" fill="#FFFFFF" width="0.5" height="4"/>
	</g>
	<g>
		<g>
			<g id="POSPK7300">
				<rect id="POSPK7300_12" x="1224.001" y="187.496" fill="#3D414D" width="36" height="21"/>
				<rect id="POSPK7300_11" x="1224.001" y="207.496" fill="#3D414D" width="36" height="21"/>
			</g>
			<g id="NEGPK7300">
				<rect id="NEGPK7300_12" x="1224.001" y="146.497" fill="#3D414D" width="36" height="21"/>
				<rect id="NEGPK7300_11" x="1224.001" y="126.497" fill="#3D414D" width="36" height="21"/>
			</g>
			<g>
				<rect x="1236.926" y="207.522" fill="#FFFFFF" width="10.006" height="2"/>
				<rect x="1236.926" y="146.48" fill="#FFFFFF" width="10.006" height="2"/>
			</g>
		</g>
		<rect x="1259.501" y="182.887" fill="#FFFFFF" width="0.5" height="4"/>
	</g>
	<g>
		<g>
			<g id="POSPK7400">
				<rect id="POSPK7400_12" x="1260.001" y="187.496" fill="#3D414D" width="36" height="21"/>
				<rect id="POSPK7400_11" x="1260.001" y="207.496" fill="#3D414D" width="36" height="21"/>
			</g>
			<g id="NEGPK7400">
				<rect id="NEGPK7400_12" x="1260.001" y="146.497" fill="#3D414D" width="36" height="21"/>
				<rect id="NEGPK7400_11" x="1260.001" y="126.497" fill="#3D414D" width="36" height="21"/>
			</g>
			<g>
				<rect x="1272.926" y="207.522" fill="#FFFFFF" width="10.006" height="2"/>
				<rect x="1272.926" y="146.48" fill="#FFFFFF" width="10.006" height="2"/>
			</g>
		</g>
		<rect x="1295.501" y="182.887" fill="#FFFFFF" width="0.5" height="4"/>
	</g>
	<g>
		<g>
			<g id="POSPK7500">
				<rect id="POSPK7500_12" x="1296.001" y="187.496" fill="#3D414D" width="36" height="21"/>
				<rect id="POSPK7500_11" x="1296.001" y="207.496" fill="#3D414D" width="36" height="21"/>
			</g>
			<g id="NEGPK7500">
				<rect id="NEGPK7500_12" x="1296.001" y="146.497" fill="#3D414D" width="36" height="21"/>
				<rect id="NEGPK7500_11" x="1296.001" y="126.497" fill="#3D414D" width="36" height="21"/>
			</g>
			<g>
				<rect x="1308.926" y="207.522" fill="#FFFFFF" width="10.006" height="2"/>
				<rect x="1308.926" y="146.48" fill="#FFFFFF" width="10.006" height="2"/>
			</g>
		</g>
		<rect x="1331.501" y="182.887" fill="#FFFFFF" width="0.5" height="4"/>
	</g>
	<g>
		<g>
			<g id="POSPK7600">
				<rect id="POSPK7600_12" x="1332.001" y="187.496" fill="#3D414D" width="36" height="21"/>
				<rect id="POSPK7600_11" x="1332.001" y="207.496" fill="#3D414D" width="36" height="21"/>
			</g>
			<g id="NEGPK7600">
				<rect id="NEGPK7600_12" x="1332.001" y="146.497" fill="#3D414D" width="36" height="21"/>
				<rect id="NEGPK7600_11" x="1332.001" y="126.497" fill="#3D414D" width="36" height="21"/>
			</g>
			<g>
				<rect x="1344.926" y="207.522" fill="#FFFFFF" width="10.006" height="2"/>
				<rect x="1344.926" y="146.48" fill="#FFFFFF" width="10.006" height="2"/>
			</g>
		</g>
		<rect x="1367.501" y="182.887" fill="#FFFFFF" width="0.5" height="4"/>
	</g>
	<g>
		<g>
			<g id="POSPK7700">
				<rect id="POSPK7700_12" x="1368.001" y="187.496" fill="#3D414D" width="36" height="21"/>
				<rect id="POSPK7700_11" x="1368.001" y="207.496" fill="#3D414D" width="36" height="21"/>
			</g>
			<g id="NEGPK7700">
				<rect id="NEGPK7700_12" x="1368.001" y="146.497" fill="#3D414D" width="36" height="21"/>
				<rect id="NEGPK7700_11" x="1368.001" y="126.497" fill="#3D414D" width="36" height="21"/>
			</g>
			<g>
				<rect x="1380.926" y="207.522" fill="#FFFFFF" width="10.006" height="2"/>
				<rect x="1380.926" y="146.48" fill="#FFFFFF" width="10.006" height="2"/>
			</g>
		</g>
		<rect x="1403.501" y="182.887" fill="#FFFFFF" width="0.5" height="4"/>
	</g>
	<g>
		<g>
			<g id="POSPK7800">
				<rect id="POSPK7800_12" x="1404.001" y="187.496" fill="#3D414D" width="36" height="21"/>
				<rect id="POSPK7800_11" x="1404.001" y="207.496" fill="#3D414D" width="36" height="21"/>
			</g>
			<g id="NEGPK7800">
				<rect id="NEGPK7800_12" x="1404.001" y="146.497" fill="#3D414D" width="36" height="21"/>
				<rect id="NEGPK7800_11" x="1404.001" y="126.497" fill="#3D414D" width="36" height="21"/>
			</g>
			<g>
				<rect x="1416.926" y="207.522" fill="#FFFFFF" width="10.006" height="2"/>
				<rect x="1416.926" y="146.48" fill="#FFFFFF" width="10.006" height="2"/>
			</g>
		</g>
		<rect x="1439.501" y="182.887" fill="#FFFFFF" width="0.5" height="4"/>
	</g>
	<g>
		<g>
			<g id="POSPK7900">
				<rect id="POSPK7900_12" x="1440.001" y="187.496" fill="#3D414D" width="36" height="21"/>
				<rect id="POSPK7900_11" x="1440.001" y="207.496" fill="#3D414D" width="36" height="21"/>
			</g>
			<g id="NEGPK7900">
				<rect id="NEGPK7900_12" x="1440.001" y="146.497" fill="#3D414D" width="36" height="21"/>
				<rect id="NEGPK7900_11" x="1440.001" y="126.497" fill="#3D414D" width="36" height="21"/>
			</g>
			<g>
				<rect x="1452.926" y="207.522" fill="#FFFFFF" width="10.006" height="2"/>
				<rect x="1452.926" y="146.48" fill="#FFFFFF" width="10.006" height="2"/>
			</g>
		</g>
		<rect x="1475.501" y="182.887" fill="#FFFFFF" width="0.5" height="4"/>
	</g>
	<g>
		<g>
			<g id="POSPK8000">
				<rect id="POSPK8000_12" x="1476.001" y="187.496" fill="#3D414D" width="36" height="21"/>
				<rect id="POSPK8000_11" x="1476.001" y="207.496" fill="#3D414D" width="36" height="21"/>
			</g>
			<g id="NEGPK8000">
				<rect id="NEGPK8000_12" x="1476.001" y="146.497" fill="#3D414D" width="36" height="21"/>
				<rect id="NEGPK8000_11" x="1476.001" y="126.497" fill="#3D414D" width="36" height="21"/>
			</g>
			<g>
				<rect x="1488.926" y="207.522" fill="#FFFFFF" width="10.006" height="2"/>
				<rect x="1488.926" y="146.48" fill="#FFFFFF" width="10.006" height="2"/>
			</g>
		</g>
		<rect x="1511.501" y="182.887" fill="#FFFFFF" width="0.5" height="4"/>
	</g>
	<g>
		<g>
			<g id="POSPK8100">
				<rect id="POSPK8100_12" x="1512.001" y="187.496" fill="#3D414D" width="36" height="21"/>
				<rect id="POSPK8100_11" x="1512.001" y="207.496" fill="#3D414D" width="36" height="21"/>
			</g>
			<g id="NEGPK8100">
				<rect id="NEGPK8100_12" x="1512.001" y="146.497" fill="#3D414D" width="36" height="21"/>
				<rect id="NEGPK8100_11" x="1512.001" y="126.497" fill="#3D414D" width="36" height="21"/>
			</g>
			<g>
				<rect x="1524.926" y="207.522" fill="#FFFFFF" width="10.006" height="2"/>
				<rect x="1524.926" y="146.48" fill="#FFFFFF" width="10.006" height="2"/>
			</g>
		</g>
		<rect x="1547.501" y="182.887" fill="#FFFFFF" width="0.5" height="4"/>
	</g>
	<g>
		<g>
			<g id="POSPK8200">
				<rect id="POSPK8200_12" x="1548.001" y="187.496" fill="#3D414D" width="36" height="21"/>
				<rect id="POSPK8200_11" x="1548.001" y="207.496" fill="#3D414D" width="36" height="21"/>
			</g>
			<g id="NEGPK8200">
				<rect id="NEGPK8200_12" x="1548.001" y="146.497" fill="#3D414D" width="36" height="21"/>
				<rect id="NEGPK8200_11" x="1548.001" y="126.497" fill="#3D414D" width="36" height="21"/>
			</g>
			<g>
				<rect x="1560.926" y="207.522" fill="#FFFFFF" width="10.006" height="2"/>
				<rect x="1560.926" y="146.48" fill="#FFFFFF" width="10.006" height="2"/>
			</g>
		</g>
		<rect x="1583.501" y="182.887" fill="#FFFFFF" width="0.5" height="4"/>
	</g>
	<g>
		<g>
			<g id="POSPK8300">
				<rect id="POSPK8300_12" x="1584.001" y="187.496" fill="#3D414D" width="36" height="21"/>
				<rect id="POSPK8300_11" x="1584.001" y="207.496" fill="#3D414D" width="36" height="21"/>
			</g>
			<g id="NEGPK8300">
				<rect id="NEGPK8300_12" x="1584.001" y="146.497" fill="#3D414D" width="36" height="21"/>
				<rect id="NEGPK8300_11" x="1584.001" y="126.497" fill="#3D414D" width="36" height="21"/>
			</g>
			<g>
				<rect x="1596.926" y="207.522" fill="#FFFFFF" width="10.006" height="2"/>
				<rect x="1596.926" y="146.48" fill="#FFFFFF" width="10.006" height="2"/>
			</g>
		</g>
		<rect x="1619.501" y="182.887" fill="#FFFFFF" width="0.5" height="4"/>
	</g>
	<g>
		<g>
			<g id="POSPK8400">
				<rect id="POSPK8400_12" x="1620.001" y="187.496" fill="#3D414D" width="36" height="21"/>
				<rect id="POSPK8400_11" x="1620.001" y="207.496" fill="#3D414D" width="36" height="21"/>
			</g>
			<g id="NEGPK8400">
				<rect id="NEGPK8400_12" x="1620.001" y="146.497" fill="#3D414D" width="36" height="21"/>
				<rect id="NEGPK8400_11" x="1620.001" y="126.497" fill="#3D414D" width="36" height="21"/>
			</g>
			<g>
				<rect x="1632.926" y="207.522" fill="#FFFFFF" width="10.006" height="2"/>
				<rect x="1632.926" y="146.48" fill="#FFFFFF" width="10.006" height="2"/>
			</g>
		</g>
		<rect x="1655.501" y="182.887" fill="#FFFFFF" width="0.5" height="4"/>
	</g>
	<g>
		<g>
			<g id="POSPK8500">
				<rect id="POSPK8500_12" x="1656.001" y="187.496" fill="#3D414D" width="36" height="21"/>
				<rect id="POSPK8500_11" x="1656.001" y="207.496" fill="#3D414D" width="36" height="21"/>
			</g>
			<g id="NEGPK8500">
				<rect id="NEGPK8500_12" x="1656.001" y="146.497" fill="#3D414D" width="36" height="21"/>
				<rect id="NEGPK8500_11" x="1656.001" y="126.497" fill="#3D414D" width="36" height="21"/>
			</g>
			<g>
				<rect x="1668.926" y="207.522" fill="#FFFFFF" width="10.006" height="2"/>
				<rect x="1668.926" y="146.48" fill="#FFFFFF" width="10.006" height="2"/>
			</g>
		</g>
		<rect x="1691.501" y="182.887" fill="#FFFFFF" width="0.5" height="4"/>
	</g>
	<g>
		<g>
			<g id="POSPK8600">
				<rect id="POSPK8600_12" x="1692.001" y="187.496" fill="#3D414D" width="36" height="21"/>
				<rect id="POSPK8600_11" x="1692.001" y="207.496" fill="#3D414D" width="36" height="21"/>
			</g>
			<g id="NEGPK8600">
				<rect id="NEGPK8600_12" x="1692.001" y="146.497" fill="#3D414D" width="36" height="21"/>
				<rect id="NEGPK8600_11" x="1692.001" y="126.497" fill="#3D414D" width="36" height="21"/>
			</g>
			<g>
				<rect x="1704.926" y="207.522" fill="#FFFFFF" width="10.006" height="2"/>
				<rect x="1704.926" y="146.48" fill="#FFFFFF" width="10.006" height="2"/>
			</g>
		</g>
		<rect x="1727.501" y="182.887" fill="#FFFFFF" width="0.5" height="4"/>
	</g>
	<g>
		<g>
			<g id="POSPK8700">
				<rect id="POSPK8700_12" x="1728.001" y="187.496" fill="#3D414D" width="36" height="21"/>
				<rect id="POSPK8700_11" x="1728.001" y="207.496" fill="#3D414D" width="36" height="21"/>
			</g>
			<g id="NEGPK8700">
				<rect id="NEGPK8700_12" x="1728.001" y="146.497" fill="#3D414D" width="36" height="21"/>
				<rect id="NEGPK8700_11" x="1728.001" y="126.497" fill="#3D414D" width="36" height="21"/>
			</g>
			<g>
				<rect x="1740.926" y="207.522" fill="#FFFFFF" width="10.006" height="2"/>
				<rect x="1740.926" y="146.48" fill="#FFFFFF" width="10.006" height="2"/>
			</g>
		</g>
		<rect x="1763.501" y="182.887" fill="#FFFFFF" width="0.5" height="4"/>
	</g>
	<g>
		<g>
			<g id="POSPK8800">
				<rect id="POSPK8800_12" x="1764.001" y="187.496" fill="#3D414D" width="36" height="21"/>
				<rect id="POSPK8800_11" x="1764.001" y="207.496" fill="#3D414D" width="36" height="21"/>
			</g>
			<g id="NEGPK8800">
				<rect id="NEGPK8800_12" x="1764.001" y="146.497" fill="#3D414D" width="36" height="21"/>
				<rect id="NEGPK8800_11" x="1764.001" y="126.497" fill="#3D414D" width="36" height="21"/>
			</g>
			<g>
				<rect x="1776.926" y="207.522" fill="#FFFFFF" width="10.006" height="2"/>
				<rect x="1776.926" y="146.48" fill="#FFFFFF" width="10.006" height="2"/>
			</g>
		</g>
		<rect x="1799.501" y="182.887" fill="#FFFFFF" width="0.5" height="4"/>
	</g>
	<g>
		<g>
			<g id="POSPK8900">
				<rect id="POSPK8900_12" x="1800.001" y="187.496" fill="#3D414D" width="36" height="21"/>
				<rect id="POSPK8900_11" x="1800.001" y="207.496" fill="#3D414D" width="36" height="21"/>
			</g>
			<g id="NEGPK8900">
				<rect id="NEGPK8900_12" x="1800.001" y="146.497" fill="#3D414D" width="36" height="21"/>
				<rect id="NEGPK8900_11" x="1800.001" y="126.497" fill="#3D414D" width="36" height="21"/>
			</g>
			<g>
				<rect x="1812.926" y="207.522" fill="#FFFFFF" width="10.006" height="2"/>
				<rect x="1812.926" y="146.48" fill="#FFFFFF" width="10.006" height="2"/>
			</g>
		</g>
		<rect x="1835.501" y="182.887" fill="#FFFFFF" width="0.5" height="4"/>
	</g>
	<g>
		<g id="bermalinha_1_">
			<rect x="0.016" y="125.094" fill="#FFFFFF" width="1835.984" height="2"/>
		</g>
		<g id="bermalinha">
			<rect x="0.016" y="227.713" fill="#FFFFFF" width="1835.984" height="2"/>
		</g>
		<g id="PKSLINHAS">
			<rect x="0.016" y="167.402" fill="#FFFFFF" width="1835.984" height="1"/>
			<rect x="0.016" y="186.403" fill="#FFFFFF" width="1835.984" height="1"/>
		</g>
	</g>
	<g>
		<path fill="#545967" d="M86.066,26.442h-20V39.11C45.382,30.302,16.17,40.965,16.17,71.119
			c-0.002,22.918,16.882,34.569,34.064,34.979v0.021h15.83v145.81h-15.83v0.021c-17.188,0.406-34.064,12.061-34.064,34.979
			c0,30.148,29.214,40.812,49.896,32.006v16.104h20V26.442z M36.166,286.926c0-9.969,7.455-14.967,14.934-14.994v-0.004h14.965
			v16.939C64.183,306.899,36.166,306.256,36.166,286.926z M66.064,69.177v16.938H51.099V86.11
			c-7.479-0.025-14.934-5.021-14.934-14.992C36.166,51.789,64.183,51.143,66.064,69.177z"/>
		<path fill="#FFFFFF" d="M76.835,61.591V26.448h-1.543v34.848c-8.779-24.139-49.896-20.86-49.896,9.828
			c0.002,16.758,12.27,25.336,24.836,25.739v0.025h15.936v-1.543H51.101v-0.005c-12.093-0.028-24.156-8.104-24.156-24.229
			c0-31.479,46.021-32.271,48.354-2.389v220.59c-2.332,29.889-48.354,29.096-48.354-2.389c0-16.119,12.063-24.193,24.156-24.227
			v-0.006h15.066v-1.541H50.234v0.023C37.669,261.58,25.4,270.16,25.4,286.924c0,30.688,41.112,33.965,49.896,9.828v38.283h1.541
			v-38.574"/>
		<path fill="#FFFFFF" d="M76.888,288.649c0.027-0.564,0.049-1.141,0.049-1.725c-0.033,0-0.065,0-0.102,0l0,0V71.119l0,0
			c0.033,0,0.064,0,0.102,0c0-0.589-0.021-1.158-0.049-1.726"/>
	</g>
	<g>
		<path fill="#545967" d="M246.066,26.442h-20V39.11c-20.685-8.809-49.896,1.854-49.896,32.009
			c-0.002,22.918,16.882,34.569,34.064,34.979v0.021h15.83v145.81h-15.83v0.021c-17.188,0.406-34.064,12.061-34.064,34.979
			c0,30.148,29.214,40.812,49.896,32.006v16.104h20V26.442z M196.166,286.926c0-9.969,7.455-14.967,14.934-14.994v-0.004h14.965
			v16.939C224.183,306.899,196.166,306.256,196.166,286.926z M226.064,69.177v16.938h-14.965V86.11
			c-7.479-0.025-14.934-5.021-14.934-14.992C196.166,51.789,224.183,51.143,226.064,69.177z"/>
		<path fill="#FFFFFF" d="M236.835,61.591V26.448h-1.543v34.848c-8.779-24.139-49.896-20.86-49.896,9.828
			c0.002,16.758,12.27,25.336,24.836,25.739v0.025h15.936v-1.543h-15.066v-0.005c-12.093-0.028-24.156-8.104-24.156-24.229
			c0-31.479,46.021-32.271,48.354-2.389v220.59c-2.332,29.889-48.354,29.096-48.354-2.389c0-16.119,12.063-24.193,24.156-24.227
			v-0.006h15.066v-1.541h-15.936v0.023c-12.564,0.404-24.834,8.982-24.834,25.748c0,30.688,41.111,33.965,49.896,9.828v38.283h1.541
			v-38.572"/>
		<path fill="#FFFFFF" d="M236.888,288.649c0.027-0.564,0.049-1.141,0.049-1.725c-0.033,0-0.065,0-0.102,0l0,0V71.119l0,0
			c0.033,0,0.064,0,0.102,0c0-0.589-0.021-1.158-0.049-1.726"/>
	</g>
	<g>
		<path fill="#545967" d="M354.885,255.362h-15.938v0.021c-17.185,0.41-34.064,12.061-34.064,34.979
			c0,30.199,29.312,40.852,50,31.963v12.713h20V26.441h-20L354.885,255.362z M354.885,290.362L354.885,290.362
			c-0.034,0-0.067,0-0.104,0c0,0.504,0.021,0.99,0.035,1.479c-1.451,18.498-29.933,18.016-29.933-1.479
			c0-9.971,7.454-14.967,14.935-14.996v-0.004h15.067L354.885,290.362L354.885,290.362z"/>
		<path fill="#FFFFFF" d="M364.061,72.832c-0.029,0.564-0.049,1.139-0.049,1.725c0.031,0,0.063,0,0.1,0l0,0v215.807l0,0
			c-0.033,0-0.063,0-0.1,0c0,0.588,0.02,1.158,0.049,1.725c-1.695,30.562-48.402,29.992-48.402-1.725
			c0-16.119,12.068-24.193,24.158-24.225v-0.01h15.067v-1.543h-15.936v0.02c-12.564,0.406-24.834,8.986-24.834,25.748
			c0,30.812,41.438,33.986,49.996,9.535v35.143h1.543v-34.848"/>
		<path fill="#FFFFFF" d="M365.653,300.184V26.441h-1.541v271.977"/>
		<path fill="#FFFFFF" d="M365.651,292.758V72.168"/>
	</g>
	<path fill="#525866" stroke="#2E2E2E" stroke-width="2" stroke-linejoin="round" d="M650.842,244.502c7.18,0,13-31.789,13-71
		c0-39.212-5.82-71-13-71h-86c7.18,0,13,31.788,13,71c0,39.211-5.82,71-13,71H650.842z"/>
	<g>
		<path fill="#525866" d="M730.867,126.191c-28.228,0-51.107,22.881-51.107,51.107c0,28.225,22.881,51.106,51.107,51.106
			c28.226,0,51.105-22.883,51.105-51.106C781.973,149.073,759.093,126.191,730.867,126.191z M730.612,191.826
			c-8.009,0-14.501-6.492-14.501-14.501c0-8.01,6.492-14.503,14.501-14.503c8.011,0,14.501,6.493,14.501,14.503
			C745.113,185.334,738.622,191.826,730.612,191.826z"/>
		<g>
			<g id="VIADUTO_PK43300_2_">
				<g>
					<polygon fill="#525866" points="745.756,304.75 716.471,304.75 716.471,219.272 745.756,219.272 					"/>
				</g>
				<g>
					<polygon fill="#FFFFFF" points="731.365,306.729 730.865,306.729 730.865,221.248 731.365,221.248 					"/>
				</g>
			</g>
			<g id="VIADUTO_PK43300_3_">
				<g>
					<polygon fill="#525866" points="745.756,159.585 716.471,159.585 716.471,54.751 745.756,54.751 					"/>
				</g>
				<g>
					<polygon fill="#FFFFFF" points="731.508,133.954 730.723,133.954 730.723,54.751 731.508,54.751 					"/>
				</g>
			</g>
			<path fill="#FFFFFF" d="M685.32,177.236c0-20.286,13.759-37.533,32.175-43.281c-0.022-0.21-0.109-0.453-0.109-0.663l0.134-0.332
				c0-0.229-0.197-0.331-0.179-0.549c-19.207,5.792-33.436,23.751-33.436,44.828c0,21.029,14.459,39.169,33.605,45.001
				c0.207-0.441,0.797-1.039,1.08-1.426C699.855,215.258,685.32,197.746,685.32,177.236z"/>
			<path fill="#FFFFFF" d="M744.989,132.816c-0.151,0.456-1.025,0.716-1.266,1.138c18.246,5.848,32.184,23.118,32.184,43.28
				c0,20.112-14.005,37.36-32.184,43.25c0.133,0.459,1.041,0.771,1.085,1.244c18.833-6.021,32.511-23.688,32.511-44.495
				C777.319,156.5,763.726,138.895,744.989,132.816z"/>
			<path fill="#FFFFFF" d="M729.175,212.713c-2.406-0.096-4.806-0.438-7.127-1.012l0.341-1.371c2.229,0.549,4.528,0.877,6.846,0.969
				L729.175,212.713L729.175,212.713z M736.359,212.278l-0.228-1.396c2.275-0.367,4.521-0.977,6.677-1.797l0.502,1.318
				C741.073,211.26,738.733,211.893,736.359,212.278L736.359,212.278z M715.271,209.266c-2.162-1.039-4.229-2.307-6.143-3.76
				l0.854-1.123c1.838,1.395,3.821,2.609,5.896,3.609L715.271,209.266L715.271,209.266z M749.741,207.153l-0.768-1.189
				c1.938-1.242,3.763-2.689,5.417-4.301l0.988,1.014C753.654,204.354,751.76,205.86,749.741,207.153L749.741,207.153z
				 M703.869,200.59c-1.582-1.811-2.986-3.783-4.168-5.873l1.229-0.697c1.137,2.002,2.48,3.896,4.003,5.641L703.869,200.59
				L703.869,200.59z M760.006,197.156l-1.169-0.793c1.297-1.912,2.404-3.955,3.282-6.086l1.307,0.541
				C762.509,193.035,761.357,195.166,760.006,197.156L760.006,197.156z M696.806,188.123c-0.731-2.283-1.235-4.652-1.492-7.043
				l1.402-0.147c0.249,2.298,0.729,4.572,1.438,6.761L696.806,188.123L696.806,188.123z M765.485,183.922l-1.391-0.262
				c0.403-2.105,0.604-4.264,0.604-6.422c0-2.317-0.235-4.635-0.696-6.878l1.388-0.283c0.48,2.341,0.722,4.748,0.722,7.161
				C766.115,179.48,765.906,181.731,765.485,183.922L765.485,183.922z M696.671,174.013l-1.406-0.133
				c0.228-2.396,0.697-4.771,1.396-7.062l1.351,0.415C697.339,169.434,696.888,171.716,696.671,174.013L696.671,174.013z
				 M761.939,163.762c-0.911-2.114-2.045-4.146-3.368-6.038l1.158-0.813c1.38,1.972,2.561,4.088,3.507,6.29L761.939,163.762
				L761.939,163.762z M700.705,160.863l-1.243-0.68c1.155-2.104,2.53-4.097,4.087-5.93l1.077,0.916
				C703.132,156.929,701.81,158.844,700.705,160.863L700.705,160.863z M754.054,152.486c-1.677-1.589-3.518-3.01-5.474-4.229
				l0.743-1.2c2.035,1.265,3.955,2.75,5.704,4.401L754.054,152.486L754.054,152.486z M709.615,150.381l-0.873-1.112
				c1.894-1.481,3.943-2.776,6.09-3.845l0.629,1.271C713.401,147.715,711.433,148.957,709.615,150.381L709.615,150.381z
				 M742.371,145.228c-2.162-0.793-4.415-1.368-6.699-1.708l0.207-1.399c2.378,0.358,4.729,0.952,6.979,1.783L742.371,145.228
				L742.371,145.228z M721.937,144.26l-0.36-1.368c2.312-0.607,4.706-0.98,7.112-1.11l0.078,1.413
				C726.456,143.317,724.156,143.677,721.937,144.26L721.937,144.26z"/>
			<path fill="#FFFFFF" d="M730.612,194.199c-9.354,0-16.96-7.607-16.96-16.963c0-9.356,7.606-16.961,16.96-16.961
				c9.355,0,16.964,7.605,16.964,16.961C747.573,186.59,739.967,194.199,730.612,194.199L730.612,194.199z M730.612,161.688
				c-8.571,0-15.548,6.976-15.548,15.55c0,8.575,6.975,15.549,15.548,15.549s15.552-6.973,15.552-15.549
				C746.162,168.664,739.185,161.688,730.612,161.688L730.612,161.688z"/>
			<path fill="none" d="M744.544,304.75"/>
			<path fill="none" d="M744.544,220.328"/>
			<polygon fill="#FFFFFF" points="718.628,304.75 717.216,304.75 717.216,220.811 718.628,220.811 			"/>
			<polygon fill="#FFFFFF" points="745.115,304.75 743.699,304.75 743.699,220.485 745.115,220.485 			"/>
			<polygon fill="#FFFFFF" points="718.628,133.954 717.216,133.954 717.216,54.751 718.628,54.751 			"/>
			<polygon fill="#FFFFFF" points="745.115,133.954 743.699,133.954 743.699,54.751 745.115,54.751 			"/>
		</g>
	</g>
	<g>
		<path fill="#525867" d="M910.626,297.764v-62.77h-20v62.77h0.139c0,10-15,10-15,0c-0.045,0-0.09,0-0.135,0V63.717
			c0-36.368-54.1-36.657-54.979-0.881h-0.021v51.536h20V63.717c0-10,15-10,15,0V298.17h0.146
			c0.408,36.254,54.988,36.123,54.988-0.406C910.719,297.764,910.672,297.764,910.626,297.764z"/>
		<path fill="#FFFFFF" d="M901.4,297.764v-62.77h-1.541v62.77h0.138c0,22.307-33.462,22.307-33.462,0c-0.046,0-0.091,0-0.137,0
			V63.717c0.002,0,0.004,0,0.006,0c0-24.062-35.618-24.343-36.506-0.881h-0.037v0.799c0,0.028-0.004,0.055-0.004,0.083
			c0,0,0.003,0,0.004,0v50.655h1.543V63.635c0.085-22.224,33.457-22.197,33.457,0.083h-0.004V298.17h0.152
			c0.415,23.943,36.526,23.814,36.526-0.406C901.49,297.764,901.446,297.764,901.4,297.764z"/>
	</g>
	<g id="VIADUTO_PK43300_4_">
		<g>
			<polygon fill="#525866" points="1016.935,323.231 985.57,323.231 985.57,38.248 1016.935,38.248 			"/>
		</g>
		<g>
			<polygon fill="#FFFFFF" points="1001.676,323.231 1000.836,323.231 1000.836,38.248 1001.676,38.248 			"/>
		</g>
	</g>
	<polygon fill="#FFFFFF" points="987.883,323.231 986.366,323.231 986.366,38.248 987.883,38.248 	"/>
	<polygon fill="#FFFFFF" points="1016.253,323.231 1014.736,323.231 1014.736,38.248 1016.253,38.248 	"/>
</g>
</svg>
